<mxfile host="app.diagrams.net" modified="2023-09-04T18:25:22.263Z" agent="Mozilla/5.0 (Windows NT 10.0; Win64; x64) AppleWebKit/537.36 (KHTML, like Gecko) Chrome/116.0.0.0 Safari/537.36" etag="wyyuRrKShc7MSqEZzrUE" version="21.7.0" type="device">
  <diagram name="PÃ¡gina-1" id="_3zXYQcCfY_ImwsTEO7Q">
    <mxGraphModel dx="1434" dy="758" grid="1" gridSize="10" guides="1" tooltips="1" connect="1" arrows="1" fold="1" page="1" pageScale="1" pageWidth="1169" pageHeight="827" math="0" shadow="0">
      <root>
        <mxCell id="0" />
        <mxCell id="1" parent="0" />
        <mxCell id="7_-mxSmgGX1I-88V7FoF-1" value="Deploymnet diagram" style="text;strokeColor=none;fillColor=none;html=1;fontSize=24;fontStyle=1;verticalAlign=middle;align=center;" vertex="1" parent="1">
          <mxGeometry x="80" y="40" width="100" height="40" as="geometry" />
        </mxCell>
        <mxCell id="7_-mxSmgGX1I-88V7FoF-2" value="Project: Marketing Automation System" style="text;align=center;fontStyle=1;verticalAlign=middle;spacingLeft=3;spacingRight=3;strokeColor=none;rotatable=0;points=[[0,0.5],[1,0.5]];portConstraint=eastwest;html=1;" vertex="1" parent="1">
          <mxGeometry x="83" y="70" width="80" height="26" as="geometry" />
        </mxCell>
        <mxCell id="7_-mxSmgGX1I-88V7FoF-3" value="User" style="html=1;whiteSpace=wrap;strokeColor=none;fillColor=#0079D6;labelPosition=center;verticalLabelPosition=middle;verticalAlign=top;align=center;fontSize=12;outlineConnect=0;spacingTop=-6;fontColor=#FFFFFF;sketch=0;shape=mxgraph.sitemap.user;" vertex="1" parent="1">
          <mxGeometry x="50" y="140" width="120" height="70" as="geometry" />
        </mxCell>
        <mxCell id="7_-mxSmgGX1I-88V7FoF-4" value="Internet" style="ellipse;shape=cloud;whiteSpace=wrap;html=1;" vertex="1" parent="1">
          <mxGeometry x="210" y="312" width="120" height="80" as="geometry" />
        </mxCell>
        <mxCell id="7_-mxSmgGX1I-88V7FoF-5" value="External CRM" style="shape=cube;whiteSpace=wrap;html=1;boundedLbl=1;backgroundOutline=1;darkOpacity=0.05;darkOpacity2=0.1;size=7;" vertex="1" parent="1">
          <mxGeometry x="60" y="510" width="120" height="60" as="geometry" />
        </mxCell>
        <mxCell id="7_-mxSmgGX1I-88V7FoF-6" value="" style="shape=cube;whiteSpace=wrap;html=1;boundedLbl=1;backgroundOutline=1;darkOpacity=0.05;darkOpacity2=0.1;" vertex="1" parent="1">
          <mxGeometry x="410" y="282" width="150" height="140" as="geometry" />
        </mxCell>
        <mxCell id="7_-mxSmgGX1I-88V7FoF-7" value="Load balancer" style="text;html=1;strokeColor=none;fillColor=none;align=center;verticalAlign=middle;whiteSpace=wrap;rounded=0;" vertex="1" parent="1">
          <mxGeometry x="440" y="312" width="80" height="30" as="geometry" />
        </mxCell>
        <mxCell id="7_-mxSmgGX1I-88V7FoF-8" value="&lt;br&gt;Nginx proxy server" style="shape=module;align=left;spacingLeft=20;align=center;verticalAlign=top;whiteSpace=wrap;html=1;" vertex="1" parent="1">
          <mxGeometry x="440" y="346" width="100" height="60" as="geometry" />
        </mxCell>
        <mxCell id="7_-mxSmgGX1I-88V7FoF-9" value="" style="shape=cube;whiteSpace=wrap;html=1;boundedLbl=1;backgroundOutline=1;darkOpacity=0.05;darkOpacity2=0.1;" vertex="1" parent="1">
          <mxGeometry x="640" y="80" width="150" height="190" as="geometry" />
        </mxCell>
        <mxCell id="7_-mxSmgGX1I-88V7FoF-10" value="" style="shape=cube;whiteSpace=wrap;html=1;boundedLbl=1;backgroundOutline=1;darkOpacity=0.05;darkOpacity2=0.1;" vertex="1" parent="1">
          <mxGeometry x="640" y="370" width="150" height="140" as="geometry" />
        </mxCell>
        <mxCell id="7_-mxSmgGX1I-88V7FoF-12" value="Email server" style="shape=cube;whiteSpace=wrap;html=1;boundedLbl=1;backgroundOutline=1;darkOpacity=0.05;darkOpacity2=0.1;size=10;" vertex="1" parent="1">
          <mxGeometry x="880" y="300" width="150" height="70" as="geometry" />
        </mxCell>
        <mxCell id="7_-mxSmgGX1I-88V7FoF-13" value="SMS Gate" style="shape=cube;whiteSpace=wrap;html=1;boundedLbl=1;backgroundOutline=1;darkOpacity=0.05;darkOpacity2=0.1;size=10;" vertex="1" parent="1">
          <mxGeometry x="1080" y="300" width="150" height="70" as="geometry" />
        </mxCell>
        <mxCell id="7_-mxSmgGX1I-88V7FoF-14" value="SMS Provider" style="shape=cube;whiteSpace=wrap;html=1;boundedLbl=1;backgroundOutline=1;darkOpacity=0.05;darkOpacity2=0.1;size=10;" vertex="1" parent="1">
          <mxGeometry x="1300" y="35" width="150" height="70" as="geometry" />
        </mxCell>
        <mxCell id="7_-mxSmgGX1I-88V7FoF-15" value="Internet" style="ellipse;shape=cloud;whiteSpace=wrap;html=1;" vertex="1" parent="1">
          <mxGeometry x="1315" y="185" width="120" height="80" as="geometry" />
        </mxCell>
        <mxCell id="7_-mxSmgGX1I-88V7FoF-16" value="Host web server" style="shape=module;align=left;spacingLeft=20;align=center;verticalAlign=top;whiteSpace=wrap;html=1;" vertex="1" parent="1">
          <mxGeometry x="670" y="139" width="100" height="45" as="geometry" />
        </mxCell>
        <mxCell id="7_-mxSmgGX1I-88V7FoF-17" value="Application" style="shape=module;align=left;spacingLeft=20;align=center;verticalAlign=top;whiteSpace=wrap;html=1;" vertex="1" parent="1">
          <mxGeometry x="670" y="202" width="100" height="40" as="geometry" />
        </mxCell>
        <mxCell id="7_-mxSmgGX1I-88V7FoF-18" value="Application server" style="text;html=1;strokeColor=none;fillColor=none;align=center;verticalAlign=middle;whiteSpace=wrap;rounded=0;" vertex="1" parent="1">
          <mxGeometry x="657.5" y="101" width="115" height="30" as="geometry" />
        </mxCell>
        <mxCell id="7_-mxSmgGX1I-88V7FoF-36" value="" style="group" vertex="1" connectable="0" parent="1">
          <mxGeometry x="640" y="610" width="150" height="190" as="geometry" />
        </mxCell>
        <mxCell id="7_-mxSmgGX1I-88V7FoF-32" value="" style="shape=cube;whiteSpace=wrap;html=1;boundedLbl=1;backgroundOutline=1;darkOpacity=0.05;darkOpacity2=0.1;" vertex="1" parent="7_-mxSmgGX1I-88V7FoF-36">
          <mxGeometry width="150" height="190" as="geometry" />
        </mxCell>
        <mxCell id="7_-mxSmgGX1I-88V7FoF-33" value="Host web server" style="shape=module;align=left;spacingLeft=20;align=center;verticalAlign=top;whiteSpace=wrap;html=1;" vertex="1" parent="7_-mxSmgGX1I-88V7FoF-36">
          <mxGeometry x="30" y="59" width="100" height="45" as="geometry" />
        </mxCell>
        <mxCell id="7_-mxSmgGX1I-88V7FoF-34" value="Application" style="shape=module;align=left;spacingLeft=20;align=center;verticalAlign=top;whiteSpace=wrap;html=1;" vertex="1" parent="7_-mxSmgGX1I-88V7FoF-36">
          <mxGeometry x="30" y="122" width="100" height="40" as="geometry" />
        </mxCell>
        <mxCell id="7_-mxSmgGX1I-88V7FoF-35" value="Application server" style="text;html=1;strokeColor=none;fillColor=none;align=center;verticalAlign=middle;whiteSpace=wrap;rounded=0;" vertex="1" parent="7_-mxSmgGX1I-88V7FoF-36">
          <mxGeometry x="17.5" y="21" width="115" height="30" as="geometry" />
        </mxCell>
        <mxCell id="7_-mxSmgGX1I-88V7FoF-37" value="" style="group" vertex="1" connectable="0" parent="1">
          <mxGeometry x="670" y="421" width="110" height="23.5" as="geometry" />
        </mxCell>
        <mxCell id="7_-mxSmgGX1I-88V7FoF-20" value="DB master" style="rounded=0;whiteSpace=wrap;html=1;" vertex="1" parent="7_-mxSmgGX1I-88V7FoF-37">
          <mxGeometry x="20" width="90" height="23.5" as="geometry" />
        </mxCell>
        <mxCell id="7_-mxSmgGX1I-88V7FoF-25" value="" style="group" vertex="1" connectable="0" parent="7_-mxSmgGX1I-88V7FoF-37">
          <mxGeometry width="20" height="23.5" as="geometry" />
        </mxCell>
        <mxCell id="7_-mxSmgGX1I-88V7FoF-23" value="" style="rounded=0;whiteSpace=wrap;html=1;" vertex="1" parent="7_-mxSmgGX1I-88V7FoF-25">
          <mxGeometry width="20" height="23.5" as="geometry" />
        </mxCell>
        <mxCell id="7_-mxSmgGX1I-88V7FoF-24" value="" style="endArrow=none;html=1;rounded=0;" edge="1" parent="7_-mxSmgGX1I-88V7FoF-25">
          <mxGeometry width="50" height="50" relative="1" as="geometry">
            <mxPoint y="11.25" as="sourcePoint" />
            <mxPoint x="20" y="11" as="targetPoint" />
          </mxGeometry>
        </mxCell>
        <mxCell id="7_-mxSmgGX1I-88V7FoF-38" value="" style="group" vertex="1" connectable="0" parent="1">
          <mxGeometry x="670" y="460" width="110" height="23.5" as="geometry" />
        </mxCell>
        <mxCell id="7_-mxSmgGX1I-88V7FoF-26" value="DB slave" style="rounded=0;whiteSpace=wrap;html=1;" vertex="1" parent="7_-mxSmgGX1I-88V7FoF-38">
          <mxGeometry x="20" width="90" height="23.5" as="geometry" />
        </mxCell>
        <mxCell id="7_-mxSmgGX1I-88V7FoF-27" value="" style="group" vertex="1" connectable="0" parent="7_-mxSmgGX1I-88V7FoF-38">
          <mxGeometry width="20" height="23.5" as="geometry" />
        </mxCell>
        <mxCell id="7_-mxSmgGX1I-88V7FoF-28" value="" style="rounded=0;whiteSpace=wrap;html=1;" vertex="1" parent="7_-mxSmgGX1I-88V7FoF-27">
          <mxGeometry width="20" height="23.5" as="geometry" />
        </mxCell>
        <mxCell id="7_-mxSmgGX1I-88V7FoF-29" value="" style="endArrow=none;html=1;rounded=0;" edge="1" parent="7_-mxSmgGX1I-88V7FoF-27">
          <mxGeometry width="50" height="50" relative="1" as="geometry">
            <mxPoint y="11.25" as="sourcePoint" />
            <mxPoint x="20" y="11" as="targetPoint" />
          </mxGeometry>
        </mxCell>
        <mxCell id="7_-mxSmgGX1I-88V7FoF-39" value="&amp;nbsp;DB cluster" style="text;html=1;strokeColor=none;fillColor=none;align=left;verticalAlign=middle;whiteSpace=wrap;rounded=0;" vertex="1" parent="1">
          <mxGeometry x="662.5" y="392" width="115" height="30" as="geometry" />
        </mxCell>
        <mxCell id="7_-mxSmgGX1I-88V7FoF-40" value="" style="endArrow=block;html=1;rounded=0;edgeStyle=orthogonalEdgeStyle;entryX=0.667;entryY=0.125;entryDx=0;entryDy=0;entryPerimeter=0;endFill=1;" edge="1" parent="1" target="7_-mxSmgGX1I-88V7FoF-4">
          <mxGeometry width="50" height="50" relative="1" as="geometry">
            <mxPoint x="163" y="174.5" as="sourcePoint" />
            <mxPoint x="253" y="174.5" as="targetPoint" />
          </mxGeometry>
        </mxCell>
        <mxCell id="7_-mxSmgGX1I-88V7FoF-41" value="&lt;font style=&quot;font-size: 12px;&quot;&gt;&amp;lt;&amp;lt;request&amp;gt;&amp;gt;&lt;/font&gt;" style="edgeLabel;html=1;align=center;verticalAlign=middle;resizable=0;points=[];" vertex="1" connectable="0" parent="7_-mxSmgGX1I-88V7FoF-40">
          <mxGeometry x="0.1111" y="-1" relative="1" as="geometry">
            <mxPoint as="offset" />
          </mxGeometry>
        </mxCell>
        <mxCell id="7_-mxSmgGX1I-88V7FoF-43" value="" style="endArrow=block;html=1;rounded=0;edgeStyle=orthogonalEdgeStyle;entryX=0.667;entryY=0.988;entryDx=0;entryDy=0;entryPerimeter=0;endFill=1;" edge="1" parent="1" target="7_-mxSmgGX1I-88V7FoF-4">
          <mxGeometry width="50" height="50" relative="1" as="geometry">
            <mxPoint x="180" y="550" as="sourcePoint" />
            <mxPoint x="270" y="550" as="targetPoint" />
          </mxGeometry>
        </mxCell>
        <mxCell id="7_-mxSmgGX1I-88V7FoF-44" value="&lt;font style=&quot;font-size: 12px;&quot;&gt;&amp;lt;&amp;lt;integrate&amp;gt;&amp;gt;&lt;/font&gt;" style="edgeLabel;html=1;align=center;verticalAlign=middle;resizable=0;points=[];" vertex="1" connectable="0" parent="7_-mxSmgGX1I-88V7FoF-43">
          <mxGeometry x="0.3397" y="-1" relative="1" as="geometry">
            <mxPoint y="-1" as="offset" />
          </mxGeometry>
        </mxCell>
        <mxCell id="7_-mxSmgGX1I-88V7FoF-45" value="" style="endArrow=block;html=1;rounded=0;endFill=1;entryX=-0.027;entryY=0.493;entryDx=0;entryDy=0;entryPerimeter=0;" edge="1" parent="1" target="7_-mxSmgGX1I-88V7FoF-6">
          <mxGeometry width="50" height="50" relative="1" as="geometry">
            <mxPoint x="320" y="351.5" as="sourcePoint" />
            <mxPoint x="400" y="350" as="targetPoint" />
          </mxGeometry>
        </mxCell>
        <mxCell id="7_-mxSmgGX1I-88V7FoF-46" value="" style="endArrow=none;html=1;rounded=0;" edge="1" parent="1">
          <mxGeometry width="50" height="50" relative="1" as="geometry">
            <mxPoint x="560" y="369" as="sourcePoint" />
            <mxPoint x="580" y="369" as="targetPoint" />
          </mxGeometry>
        </mxCell>
        <mxCell id="7_-mxSmgGX1I-88V7FoF-47" value="" style="endArrow=none;html=1;rounded=0;" edge="1" parent="1">
          <mxGeometry width="50" height="50" relative="1" as="geometry">
            <mxPoint x="580" y="680" as="sourcePoint" />
            <mxPoint x="580" y="160" as="targetPoint" />
          </mxGeometry>
        </mxCell>
        <mxCell id="7_-mxSmgGX1I-88V7FoF-57" value="&lt;font style=&quot;font-size: 12px;&quot;&gt;Balance&lt;/font&gt;" style="edgeLabel;html=1;align=center;verticalAlign=middle;resizable=0;points=[];" vertex="1" connectable="0" parent="7_-mxSmgGX1I-88V7FoF-47">
          <mxGeometry x="0.6192" relative="1" as="geometry">
            <mxPoint as="offset" />
          </mxGeometry>
        </mxCell>
        <mxCell id="7_-mxSmgGX1I-88V7FoF-48" value="" style="endArrow=block;html=1;rounded=0;endFill=1;" edge="1" parent="1">
          <mxGeometry width="50" height="50" relative="1" as="geometry">
            <mxPoint x="580" y="160" as="sourcePoint" />
            <mxPoint x="640" y="160" as="targetPoint" />
          </mxGeometry>
        </mxCell>
        <mxCell id="7_-mxSmgGX1I-88V7FoF-49" value="" style="endArrow=block;html=1;rounded=0;endFill=1;" edge="1" parent="1">
          <mxGeometry width="50" height="50" relative="1" as="geometry">
            <mxPoint x="580" y="680" as="sourcePoint" />
            <mxPoint x="640" y="680" as="targetPoint" />
          </mxGeometry>
        </mxCell>
        <mxCell id="7_-mxSmgGX1I-88V7FoF-51" value="" style="endArrow=block;html=1;rounded=0;edgeStyle=orthogonalEdgeStyle;endFill=1;entryX=0.6;entryY=0;entryDx=0;entryDy=0;entryPerimeter=0;" edge="1" parent="1" target="7_-mxSmgGX1I-88V7FoF-13">
          <mxGeometry width="50" height="50" relative="1" as="geometry">
            <mxPoint x="790" y="160" as="sourcePoint" />
            <mxPoint x="1170" y="290" as="targetPoint" />
            <Array as="points">
              <mxPoint x="1170" y="160" />
            </Array>
          </mxGeometry>
        </mxCell>
        <mxCell id="7_-mxSmgGX1I-88V7FoF-52" value="&lt;font style=&quot;font-size: 12px;&quot;&gt;&amp;lt;&amp;lt;use&amp;gt;&amp;gt;&lt;/font&gt;" style="edgeLabel;html=1;align=center;verticalAlign=middle;resizable=0;points=[];" vertex="1" connectable="0" parent="7_-mxSmgGX1I-88V7FoF-51">
          <mxGeometry x="0.1111" y="-1" relative="1" as="geometry">
            <mxPoint x="-124" y="-2" as="offset" />
          </mxGeometry>
        </mxCell>
        <mxCell id="7_-mxSmgGX1I-88V7FoF-53" value="" style="endArrow=block;html=1;rounded=0;endFill=1;" edge="1" parent="1">
          <mxGeometry width="50" height="50" relative="1" as="geometry">
            <mxPoint x="960" y="170" as="sourcePoint" />
            <mxPoint x="960" y="300" as="targetPoint" />
          </mxGeometry>
        </mxCell>
        <mxCell id="7_-mxSmgGX1I-88V7FoF-54" value="" style="endArrow=block;html=1;rounded=0;edgeStyle=orthogonalEdgeStyle;endFill=1;" edge="1" parent="1">
          <mxGeometry width="50" height="50" relative="1" as="geometry">
            <mxPoint x="790" y="712" as="sourcePoint" />
            <mxPoint x="1170" y="372" as="targetPoint" />
            <Array as="points">
              <mxPoint x="1170" y="712" />
            </Array>
          </mxGeometry>
        </mxCell>
        <mxCell id="7_-mxSmgGX1I-88V7FoF-55" value="&lt;font style=&quot;font-size: 12px;&quot;&gt;&amp;lt;&amp;lt;use&amp;gt;&amp;gt;&lt;/font&gt;" style="edgeLabel;html=1;align=center;verticalAlign=middle;resizable=0;points=[];" vertex="1" connectable="0" parent="7_-mxSmgGX1I-88V7FoF-54">
          <mxGeometry x="0.1111" y="-1" relative="1" as="geometry">
            <mxPoint x="-161" y="20" as="offset" />
          </mxGeometry>
        </mxCell>
        <mxCell id="7_-mxSmgGX1I-88V7FoF-56" value="" style="endArrow=block;html=1;rounded=0;endFill=1;entryX=0;entryY=0;entryDx=80;entryDy=70;entryPerimeter=0;" edge="1" parent="1" target="7_-mxSmgGX1I-88V7FoF-12">
          <mxGeometry width="50" height="50" relative="1" as="geometry">
            <mxPoint x="960" y="710" as="sourcePoint" />
            <mxPoint x="960" y="380" as="targetPoint" />
          </mxGeometry>
        </mxCell>
        <mxCell id="7_-mxSmgGX1I-88V7FoF-58" value="&lt;font style=&quot;font-size: 12px;&quot;&gt;Balance&lt;/font&gt;" style="edgeLabel;html=1;align=center;verticalAlign=middle;resizable=0;points=[];" vertex="1" connectable="0" parent="1">
          <mxGeometry x="585" y="550" as="geometry" />
        </mxCell>
        <mxCell id="7_-mxSmgGX1I-88V7FoF-59" value="" style="endArrow=block;html=1;rounded=0;endFill=1;edgeStyle=orthogonalEdgeStyle;" edge="1" parent="1">
          <mxGeometry width="50" height="50" relative="1" as="geometry">
            <mxPoint x="1230" y="346" as="sourcePoint" />
            <mxPoint x="1380" y="270" as="targetPoint" />
          </mxGeometry>
        </mxCell>
        <mxCell id="7_-mxSmgGX1I-88V7FoF-60" value="&lt;font style=&quot;font-size: 12px;&quot;&gt;&amp;lt;&amp;lt;use&amp;gt;&amp;gt;&lt;/font&gt;" style="edgeLabel;html=1;align=center;verticalAlign=middle;resizable=0;points=[];" vertex="1" connectable="0" parent="7_-mxSmgGX1I-88V7FoF-59">
          <mxGeometry x="-0.1806" relative="1" as="geometry">
            <mxPoint as="offset" />
          </mxGeometry>
        </mxCell>
        <mxCell id="7_-mxSmgGX1I-88V7FoF-61" value="" style="endArrow=block;html=1;rounded=0;endFill=1;" edge="1" parent="1">
          <mxGeometry width="50" height="50" relative="1" as="geometry">
            <mxPoint x="1374.5" y="193.25" as="sourcePoint" />
            <mxPoint x="1375" y="110" as="targetPoint" />
          </mxGeometry>
        </mxCell>
        <mxCell id="7_-mxSmgGX1I-88V7FoF-62" value="" style="endArrow=block;html=1;rounded=0;endFill=1;" edge="1" parent="1">
          <mxGeometry width="50" height="50" relative="1" as="geometry">
            <mxPoint x="724.5" y="272" as="sourcePoint" />
            <mxPoint x="725" y="360" as="targetPoint" />
          </mxGeometry>
        </mxCell>
        <mxCell id="7_-mxSmgGX1I-88V7FoF-63" value="&lt;font style=&quot;font-size: 12px;&quot;&gt;Datasource&lt;/font&gt;" style="edgeLabel;html=1;align=center;verticalAlign=middle;resizable=0;points=[];" vertex="1" connectable="0" parent="7_-mxSmgGX1I-88V7FoF-62">
          <mxGeometry x="0.0228" relative="1" as="geometry">
            <mxPoint as="offset" />
          </mxGeometry>
        </mxCell>
        <mxCell id="7_-mxSmgGX1I-88V7FoF-64" value="" style="endArrow=block;html=1;rounded=0;endFill=1;" edge="1" parent="1">
          <mxGeometry width="50" height="50" relative="1" as="geometry">
            <mxPoint x="719.5" y="510" as="sourcePoint" />
            <mxPoint x="720" y="598" as="targetPoint" />
          </mxGeometry>
        </mxCell>
        <mxCell id="7_-mxSmgGX1I-88V7FoF-65" value="&lt;font style=&quot;font-size: 12px;&quot;&gt;Datasource&lt;/font&gt;" style="edgeLabel;html=1;align=center;verticalAlign=middle;resizable=0;points=[];" vertex="1" connectable="0" parent="7_-mxSmgGX1I-88V7FoF-64">
          <mxGeometry x="0.0228" relative="1" as="geometry">
            <mxPoint as="offset" />
          </mxGeometry>
        </mxCell>
      </root>
    </mxGraphModel>
  </diagram>
</mxfile>
